<svg xmlns="http://www.w3.org/2000/svg" viewBox="0 0 250.99 311.82"><defs><style>.cls-1{fill:#f1f1f1;}</style></defs><g id="Calque_2" data-name="Calque 2"><g id="Calque_1-2" data-name="Calque 1"><path class="cls-1" d="M116.62,0h20.9a2.06,2.06,0,0,0,1.86,2C162.25,6.4,180,18.63,193.28,37.59c1.93,2.76,4,3.32,7.05,3.31,16.88-.1,33.77,0,50.66,0v2c-2.3.06-3.48,1.85-4.73,3.31-11.61,13.52-23.13,27.1-34.71,40.64a13.61,13.61,0,0,0-3.44,9.46c.16,22,.08,44.11.08,66.16,0,5-1,9.82-1.75,14.7-1.56,9.84-6.32,18.4-10.69,27.13-4.62,9.23-11.55,16.54-19.47,22.86C160.15,240,141.72,246.24,121,245c-4.53-.27-5.53,1.36-5.49,5.63.21,20.39.1,40.79.1,61.19h-5c0-20.59-.1-41.17.08-61.76,0-3.93-1.1-5.41-5.06-5.05a55,55,0,0,1-9.94,0c-4-.36-5.1,1.12-5.07,5.05.18,20.59.08,41.17.08,61.76h-5c0-20.41-.12-40.82.09-61.22,0-4.33-1.06-5.67-5.52-5.63-25.2.21-50.39.11-75.59.07-1.55,0-3.24.56-4.75-.51.43-1.85,1.91-2.78,3.09-3.82a300.94,300.94,0,0,0,26-25.92c8.78-9.84,14.74-20.41,14.09-34.25-.33-7.26-1.27-14.51-1.13-21.78.47-25.67-.65-51.34.79-77C44,60.23,52,42,66.09,26.26,78.77,12.08,95.37,5.17,113.76,2,115.14,1.79,116.43,1.77,116.62,0Zm23.89,54.79c-.13,8.62,5.93,17.44,16.57,17.61,9.95.15,16.35-6.33,17.15-17.55.59-8.26-8.08-16.79-16.36-17C149,37.65,140.65,45.74,140.51,54.79Z"/></g></g></svg>