<svg xmlns="http://www.w3.org/2000/svg" viewBox="0 0 261.84 261.83"><defs><style>.cls-1{fill:#f1f1f1;}</style></defs><g id="Calque_2" data-name="Calque 2"><g id="Calque_1-2" data-name="Calque 1"><path class="cls-1" d="M117.48,0h27.87c.2,1.75,1.46,1.84,2.87,2A126.5,126.5,0,0,1,218,33.52c22.48,19.89,36.46,44.95,41.84,74.62.24,1.31.59,2.21,2,2.37v41.81c-1.77.19-1.77,1.48-2,2.86A129.84,129.84,0,0,1,154.68,259.83c-1.3.24-2.2.59-2.36,2H110.51c-.82-3.46-3.88-1.87-5.82-2.32-30.45-7.18-56.08-22.2-75.58-46.85A130.18,130.18,0,0,1,2.73,154.09c-.51-2.83,1.12-6.8-2.73-8.74V117.48c2.11-.27,1.83-1.89,2-3.37.42-3.26.83-6.54,1.56-9.74,6.91-30.18,21.87-55.48,46.17-74.9A131.32,131.32,0,0,1,108.24,2.8C111.28,2.22,115.31,3.79,117.48,0Zm23.89,79.13V60.73c0-8.46.07-16.92,0-25.37-.05-5.3-3-9.72-6.76-10.43-4.52-.85-9.31,2-11.53,6.83a20.28,20.28,0,0,0-1.63,8.7c.06,27.69.18,55.38,0,83.07a25.66,25.66,0,0,0,7.89,19.13q31.23,31.38,62.57,62.65a17.44,17.44,0,0,0,6.13,4.13c5.47,2.1,10.54-1.1,11.11-6.9.51-5.16-1.27-9.27-4.95-12.92-19.88-19.75-39.63-39.63-59.52-59.38a10,10,0,0,1-3.3-7.83C141.46,108,141.37,93.56,141.37,79.13Z"/></g></g></svg>