<svg xmlns="http://www.w3.org/2000/svg" viewBox="0 0 404.23 187.28"><defs><style>.cls-1{fill:#f1f1f1;}</style></defs><g id="Calque_2" data-name="Calque 2"><g id="Calque_1-2" data-name="Calque 1"><path class="cls-1" d="M404.23,170.44v4c-2.71.67-5.41,1.37-8.13,2-19.79,4.56-40,5.49-60.17,6.72-21.53,1.32-43.11,2.71-64.73,2.19a15.49,15.49,0,0,0-3,.15c-.92.17-1.25,1-1.4,1.82H137.4c-.68-3-3.1-1.86-4.88-1.94-9.89-.5-19.79-.29-29.71-.75-18.28-.85-36.55-1.71-54.79-3.21-16.24-1.33-32.54-2.13-48-8v-2c2.64-.94,5.22-2.29,7.94-2.71,3.91-.61,4.57-2.64,3.61-5.91A49.19,49.19,0,0,1,11,137.92c4.93-22,18.39-36.23,40-42.83,9.74-3,19.57-2.6,29.39-.49,2.15.46,3.82,1,4.21-2.14a102.44,102.44,0,0,1,24.08-54.7C125.07,18.5,145.65,6.77,170.37,2c1.38-.27,2.68-.26,2.87-2H206.1c.19,1.76,1.48,1.77,2.86,2,20.93,3.74,39,13.26,54.3,27.75a91.86,91.86,0,0,1,21.48,29.92c1.84,4.19,4.05,5.32,8.34,3.75,5.93-2.16,12.25-2.62,18.48-2.92,11.22-.53,22,1.86,32.41,5.9,20.51,8,35.57,22,44.78,41.83a79.45,79.45,0,0,1,5,55.32c-.56,2.12-.77,4,1.87,4.75C398.45,169.1,401.35,169.73,404.23,170.44Z"/></g></g></svg>