<svg xmlns="http://www.w3.org/2000/svg" viewBox="0 0 207.83 201.84"><defs><style>.cls-1{fill:#f1f1f1;}</style></defs><g id="Calque_2" data-name="Calque 2"><g id="Calque_1-2" data-name="Calque 1"><path class="cls-1" d="M82.54,0H124.3c.22,2.15,1.93,1.76,3.35,2.08,12.18,2.73,23.75,7,34.18,14C181.29,29.16,195.39,46.7,205.05,68c.62,1.36.46,3.51,2.78,3.64V104.4c-2.42.39-1.88,2.3-2,3.88a111.25,111.25,0,0,1-7.4,34.65c-6.9,17.15-17.14,30.9-36.46,35.26a3.44,3.44,0,0,0-2.9,4c.11,2.15,0,4.31,0,6.46,0,6.66-1.43,8.73-7.64,11-1.31.47-3.16.08-3.3,2.25h-5a2,2,0,0,0-1.35-1.85c-8.76-2.85-9.45-4-9.68-12.68,0-2.08,1.67-6-1.95-5.93-3.47.06-1.95,4-1.82,6,.43,6.45,0,11.94-8.17,12.83-.35,0-.6,1-.9,1.6h-4c-.11-1.43-1-1.78-2.3-2.05-5-1.12-6.91-4.53-6.66-9.45a51.57,51.57,0,0,0,0-5.42c-.08-1.51.58-3.72-1.95-3.73s-2.11,2.22-2,3.7c.74,7.19-.62,13.13-8.51,15.62-.27.08-.33.87-.48,1.33h-5c-.1-1.81-1.54-1.73-2.79-2.15-6.63-2.23-7.92-4.35-8.25-11.13-.12-2.47,1.86-7.07-1.72-7.07-4.15,0-1.89,4.71-2,7.23-.38,6.9-2.14,9.56-8.73,11.1-1.27.29-2.2.59-2.33,2h-5c-.22-2.16-1.92-1.77-3.34-2.07-6.72-1.47-9.55-5-9.59-11.79,0-3,0-6,0-8.94a2.76,2.76,0,0,0-2.35-3.14C28.81,172,19.85,162.08,11.61,151.44,6.74,145.16,5.3,137.35,2.88,130c-.65-2,.19-4.9-2.88-5.71V72.58c2.45-.2,2-2.37,2.38-3.78A95.86,95.86,0,0,1,24.22,31.05c15.17-16.23,34.16-25.43,56-29C81.48,1.78,82.37,1.41,82.54,0ZM59.18,87.5q-16.4,0-32.78,0c-5.55,0-6.29.85-5.42,6.4A58.46,58.46,0,0,0,32.28,121c10.11,13.05,26.93,17.68,41.08,9.73,15.16-8.52,21.21-22.79,23.1-39.32.35-3.06-1-4-4-4C81.36,87.57,70.27,87.5,59.18,87.5Zm92.09,0c-11.1,0-22.2.15-33.3-.09-3.87-.08-5,1.34-4.63,4.93a53.7,53.7,0,0,0,10.22,26.45c9.93,13.73,27.71,18.8,41.69,11.3,15.23-8.17,21.28-22.3,23.68-38.51.5-3.42-1.28-4.17-4.35-4.13C173.48,87.58,162.37,87.5,151.27,87.5Z"/></g></g></svg>