<svg xmlns="http://www.w3.org/2000/svg" viewBox="0 0 214.28 282.76"><defs><style>.cls-1{fill:#f1f1f1;}</style></defs><g id="Calque_2" data-name="Calque 2"><g id="Calque_1-2" data-name="Calque 1"><path class="cls-1" d="M86.52,0h31.83c.29,2.09,1.87,2,3.39,2a143.25,143.25,0,0,1,45.45,8.86c18.52,6.75,33,18.21,40.89,36.66,7.44,17.5,7.78,35.76,3.17,54-4,16-12.68,29.42-26.62,38.26a105.45,105.45,0,0,1-53.87,16.5c-2.83.09-5,.22-4.3,4,1.14,6,2.24,12,3.13,18,1.46,9.85.07,12.5-9.53,14.88-11.22,2.79-22.63,4.09-34.15,5.14-10,.91-19.73,1.15-29.48-1.21-7.64-1.84-13-6-15.23-13.94-3.8-13.35-3.89-27.06-4.35-40.74-.26-7.52,1.88-10.32,9-12.89a105.69,105.69,0,0,1,23.65-5.08,57.37,57.37,0,0,0,27.31-10.95c5-3.66,8.06-12.32,6.25-17.33-2.07-5.73-7.36-7-12.46-7.45-9.3-.79-18.39.77-27.34,3.47-11.14,3.36-21.22,9.23-32.1,13.2-4.81,1.76-8.37.39-11.67-2.78C16,99.22,13.79,94.91,12,90.42A181,181,0,0,1,2.61,56.07C2.14,53.43,4,49.48,0,47.79V27.88a65.76,65.76,0,0,1,25.62-15C44.32,6.61,63.42,2.67,83.14,2,84.66,1.94,86.23,2.08,86.52,0Z"/><path class="cls-1" d="M72.6,282.76c-.37-2.45-2.33-1.72-3.86-2-9.62-1.89-19-4.25-26.26-11.64-15.7-15.92-9.37-44.5,11.64-52a80.91,80.91,0,0,1,29.08-5c10.55.2,21.08-.14,31.57,1.94,19.38,3.84,27,11.91,28.25,29.61,1.2,16.39-5.58,28.17-23.24,34.24a58.57,58.57,0,0,1-12.49,2.92c-1.41.16-2.68.25-2.87,2Z"/></g></g></svg>