<svg xmlns="http://www.w3.org/2000/svg" viewBox="0 0 276.83 306.79"><defs><style>.cls-1{fill:#f1f1f1;}.cls-2{fill:#fefefe;}</style></defs><g id="Calque_2" data-name="Calque 2"><g id="Calque_1-2" data-name="Calque 1"><path class="cls-1" d="M276.83,166.34v27.89c-.85.15-1.62.42-1.85,1.38-3.7,16-9.85,31.23-10.54,48.09-.42,10.48-6.46,19.7-16.7,24.84-7.89,4-14.64,9.46-21.21,15.29-13.16,11.66-28.21,17.21-46.05,14.32-9.7-1.58-17.57,3.39-25.14,8.64H141.4c-.21-2.36-2.35-2.58-3.86-3.4A33.76,33.76,0,0,1,121,283.72c-2.44-7.52-5.6-14-12.12-19.25-11-8.9-16.59-21.65-21.5-34.63-3.41-9-4-18.78-6.69-27.81-6.37-21.24-16.2-40.88-32.41-56.79C44,141,39.71,136.4,38.24,130.14c-.57-2.42-1.31-5.19,1.65-6.55,4.47-2,9.49-3.54,14,1.55,1.86,2.1,3.58,4.32,5.46,6.41a8.08,8.08,0,0,0,8.07,2.76c3.12-.65,3.18-3.47,3.75-5.83,1.29-5.22.3-10.18-2-14.93A265,265,0,0,0,54.62,86.41C41.14,65,29.58,42.28,10.5,24.91c-1-.88-1.61-2.11-2.57-3C4.59,18.75,3.69,13.84,0,11V6c2.57-2.63,6.57-3.1,9-6h6c.14.85.39,1.61,1.36,1.85C23.07,3.56,27.73,7.91,32,13.32,36.87,19.62,40,27,44.73,33.39,53.33,45,65.12,53.48,75,63.86a13.78,13.78,0,0,0,7.2,4.2c4.42.9,7.33-1.53,7.49-6,.11-3-1.84-4.41-3.48-6.25-5.06-5.69-3.73-11.35,3-13.32,3.62-1.06,6.37.73,9.12,2.62,7.85,5.39,12.39,13.6,17.84,21,2.52,3.45,4.62,7.23,8.58,9.45,4.59,2.57,7.71,2,10.42-2.49,1.59-2.62,1.3-5.24.53-8.12-1-3.67-3.31-6.87-3.32-10.86,0-3.21,1.29-4.75,4.5-4.22a25.46,25.46,0,0,1,15.53,8.91c6.26,7.26,12,15.22,19.3,21.25,14.77,12.21,33,16.12,51.53,18.58,7,.93,14.3.71,20.62,4.53,8.68,5.25,11.54,14.19,13.93,23.19,1.79,6.71,2.87,13.57,7.51,19.18a49.29,49.29,0,0,1,9,17.58C274.69,164.44,274.74,166.26,276.83,166.34Z"/><path class="cls-2" d="M82.3,9.84c-3.44-.29-6.6.78-9.75,1.76-1.08.33-2.34.83-2.43,2.19-.11,1.56,1.16,2.28,2.34,2.89a23,23,0,0,0,2.34.8c9.53,3.68,19.88,5,28.72,10.7,3.41,2.2,10,.29,12.86-2.7,3.05-3.25,2.75-6.33-1.5-7.71A183.68,183.68,0,0,0,82.3,9.84Z"/><path class="cls-2" d="M9,0C6.57,2.88,2.57,3.35,0,6,0,0,0,0,9,0Z"/><path class="cls-1" d="M22.91,78.68c0-2.75,1.1-4.48,3.59-4.85a3.42,3.42,0,0,1,4,3.52c.15,7.1,3.86,12.05,8.92,16.36a3.69,3.69,0,0,1,1,1.13c1.26,2.82,2.95,5.6,1.39,8.85-.54,1.1-1.46,2.14-2.7,1.67A9.62,9.62,0,0,1,33.2,99c-1.49-4.87-4.62-8.72-7.32-12.83A22.66,22.66,0,0,1,22.91,78.68Z"/><path class="cls-1" d="M82.3,9.84a183.68,183.68,0,0,1,32.58,7.93c4.25,1.38,4.55,4.46,1.5,7.71-2.83,3-9.45,4.9-12.86,2.7-8.84-5.7-19.19-7-28.72-10.7a23,23,0,0,1-2.34-.8c-1.18-.61-2.45-1.33-2.34-2.89.09-1.36,1.35-1.86,2.43-2.19C75.7,10.62,78.86,9.55,82.3,9.84Z"/></g></g></svg>