<svg xmlns="http://www.w3.org/2000/svg" viewBox="0 0 214.34 273.29"><defs><style>.cls-1{fill:#f1f1f1;}</style></defs><g id="Calque_2" data-name="Calque 2"><g id="Calque_1-2" data-name="Calque 1"><path class="cls-1" d="M86.51,0h49.07c.27,2.8,2.52,2.24,4.33,2.71a64.57,64.57,0,0,1,29.94,16.8c1.45,1.42,3.91,2.78,2.58,5.3-1.08,2.06-3.46,2.33-5.68,2.33-7.09,0-14.19.05-21.29,0a140.65,140.65,0,0,0-39.36,4.9c-9.62,2.71-17.19,8.68-19.2,18-3.68,17.19-2.73,34.3,5.82,50.54,9.18,17.43,31.07,29.67,50.71,27.32,15.95-1.91,31.75-4.56,47.13-9.36,7.71-2.41,9.51-1,9.58,7.28,0,1.72-.06,3.45.11,5.16,2.32,22.75,2.36,45.47-2.53,67.88-3.84,17.66-11.28,34.61-9.38,53.33.33,3.24-2.57,5.35-5.58,6.33a52.88,52.88,0,0,1-9.95,2.55c-16.38,1.95-20.07-.46-22.34-14-1.64-9.79,3.32-18,12.7-21.17a21.18,21.18,0,0,0,9.94-6.89c1-1.29,1.49-2.65.44-4.12-.89-1.23-2.07-1.09-3.45-.8-5.74,1.21-11.58.12-17.35.59-13.37,1.08-26.38-3.09-39.7-2.62-6,.22-9.94,2.79-11.39,9.15-1.71,7.49-.19,15-1,22.48s-.08,15.74-5.31,22.14c-8,9.77-18.84,7.76-29.11,5.88S53,266.42,51.72,256.65c-2.83-21.89-3.62-43.95-5.14-65.95-1-15-.45-30-1-45.09-1.39-34.51-.89-69.1,10.19-102.42C60,30.26,63.6,16.84,75.33,7.77,79,5,84.53,5.05,86.51,0Z"/><path class="cls-1" d="M214.34,84.06c-.42.1-1.11.09-1.2.33-5.38,12.88-17.63,16.1-29,20.21-15.16,5.51-30.89,7.4-46.79,3.93-13.77-3-26.25-8.61-32.43-22.58-5.06-11.46-2.49-22.64,2.58-33.42,1.58-3.36,5.13-5,8.38-5.52,13.68-2.3,27.12-5.77,41.23-5.86,14.9-.1,28.43,3.91,41.26,10.59A31.16,31.16,0,0,1,211.21,65c.78,1.47.79,3.5,3.13,3.53Z"/><path class="cls-1" d="M0,125.44c2.7-.38,2.66-2.43,2.56-4.39-.4-8.2,1.33-16.18,2.69-24.17,1.32-7.73,5.18-13.44,13.24-15.75C26.83,78.74,33.7,84.05,32,92.54c-1.31,6.46-.91,12.82-.94,19.22q-.2,36.44,0,72.87c0,6,1.11,11.94,1.14,17.9.05,7.07-2.83,9.59-9.84,9.55-9.87-.06-17-6.29-19.59-17-.45-1.91.49-4.61-2.76-5Z"/></g></g></svg>