<svg xmlns="http://www.w3.org/2000/svg" viewBox="0 0 157 299.61"><defs><style>.cls-1{fill:#f1f1f1;}</style></defs><g id="Calque_2" data-name="Calque 2"><g id="Calque_1-2" data-name="Calque 1"><path class="cls-1" d="M157,134.6c-1.81,1-4.08,1.55-5.37,3-11.48,12.83-23.09,25.56-34.07,38.81-17,20.5-33.65,41.28-50.22,62.13C54.06,255.24,41.13,272.22,28,289.06a74.68,74.68,0,0,1-9.5,10.55c15.62-40.95,35.27-80,53.87-120.11-5.31-2.42-10.38-4.38-15.13-6.95-18.51-10-36.92-20.28-55.38-30.41A9.17,9.17,0,0,0,0,141.58v-6c.68-.78,1.68-1.44,2-2.34,1.15-3.45,2-7,3.12-10.46,11-34.69,25.43-67.95,42.16-100.24a12.07,12.07,0,0,1,4.6-4.92A154.88,154.88,0,0,1,93.15,2C94.19,1.73,95.05.67,96,0h38a13.23,13.23,0,0,0,2.85,2c6.26,2.17,12.57,4.2,20.08,6.68-17.22,10-28.74,23.64-40.05,37.17-14.5,17.37-28,35.54-41.86,53.47-4.58,5.94-8.7,12.22-13.39,18.86,7,.91,13,1.59,19.05,2.5,16.15,2.45,32.3,5,48.44,7.52,9.3,1.45,18.59,3,27.88,4.43Z"/></g></g></svg>